<svg width="364" height="691" viewBox="0 0 364 691" fill="none" xmlns="http://www.w3.org/2000/svg">
<g clip-path="url(#clip0)">
<path fill-rule="evenodd" clip-rule="evenodd" d="M254.978 485.33C251.812 488.163 244.178 493.83 238.978 493.83C232.478 493.83 229.978 489.83 231.978 483.33C233.978 476.83 239.978 469.33 245.478 466.83C249.878 464.83 257.312 464.663 260.478 464.83C262.978 462.163 268.506 456.83 271.306 456.83C274.806 456.83 274.478 458.83 272.978 464.83C272.216 467.877 270.036 473.503 268.075 478.564C266.174 483.47 264.478 487.845 264.478 488.83C264.478 489.094 264.47 489.349 264.461 489.59C264.407 491.174 264.374 492.132 266.978 490.83C269.978 489.33 285.306 477.83 291.806 471.33C293.365 469.83 296.306 471.33 296.306 474.33C310.306 457.83 319.306 459.83 320.806 460.83C322.306 461.83 325.306 467.83 315.806 485.33C307.067 501.427 319.059 488.756 321.816 485.843C322.056 485.59 322.226 485.41 322.306 485.33C322.419 485.217 322.597 485.02 322.831 484.76C324.665 482.727 329.985 476.83 335.306 476.83C338.183 476.83 339.565 476.83 339.839 477.381C340.137 477.979 339.128 479.227 337.306 481.83C335.454 484.476 334.162 485.721 332.17 487.642C330.398 489.35 328.073 491.592 324.306 495.83C317.493 503.494 310.317 503.181 304.323 502.919C303.279 502.874 302.27 502.83 301.306 502.83C300.306 498.33 303.806 486.33 305.806 483.33C307.806 480.33 311.306 473.83 308.806 474.33C306.306 474.83 301.806 481.83 299.306 486.33C296.806 490.83 289.306 499.33 284.806 499.33C281.206 499.33 278.973 495.663 278.306 493.83C276.835 494.32 275.729 495.12 274.566 495.961C272.17 497.693 269.534 499.599 262.978 499.33C255.978 499.33 253.978 498.83 254.978 485.33ZM240.306 484.83C240.806 480.83 244.506 472.43 255.306 470.83C255.306 475.496 243.306 484.83 240.306 484.83Z" fill="white"/>
<path d="M232.306 475.83C229.906 485.83 184.973 588.663 162.806 638.83C164.306 644.163 163.706 654.83 149.306 654.83C153.806 637.83 193.806 541.83 215.306 494.83C193.806 513.83 191.306 495.33 199.306 482.83C207.306 470.33 212.806 475.83 209.306 482.83C198.806 503.83 218.306 477.83 225.806 471.33C233.306 464.83 235.306 463.33 232.306 475.83Z" fill="white"/>
<path d="M65.306 575.83C75.306 538.63 128.806 409.33 154.306 349.33C158.755 338.83 170.306 333.33 172.306 340.33C173.906 345.93 167.973 351.33 164.806 353.33C155.806 371.33 131.906 424.13 108.306 491.33C158.306 381.33 220.306 345.33 231.806 340.33C243.306 335.33 290.306 320.33 301.806 349.33C313.306 378.33 281.806 408.83 265.306 421.83C248.806 434.83 205.806 450.83 161.806 450.83C195.306 527.33 300.306 652.83 311.806 666.83C323.306 680.83 323.306 675.83 328.806 675.33C334.306 674.83 338.306 684.83 324.806 684.33C311.306 683.83 301.306 670.33 298.306 666.83C295.306 663.33 248.806 606.33 207.806 548.83C175.006 502.83 154.139 460.663 147.806 445.33C169.806 445.83 223.306 439.93 261.306 412.33C308.806 377.83 308.306 314.83 231.806 349.33C155.306 383.83 82.806 574.33 79.306 582.83C75.806 591.33 75.306 593.33 69.306 595.33C63.306 597.33 63.806 593.33 63.806 588.83C63.806 584.33 63.806 580.33 65.306 575.83Z" fill="white"/>
<path fill-rule="evenodd" clip-rule="evenodd" d="M199.978 172.33C196.812 175.163 189.178 180.83 183.978 180.83C177.478 180.83 174.978 176.83 176.978 170.33C178.978 163.83 184.978 156.33 190.478 153.83C194.878 151.83 202.312 151.663 205.478 151.83C207.978 149.163 213.678 143.83 216.478 143.83C219.978 143.83 219.478 145.83 217.978 151.83C217.217 154.877 215.036 160.503 213.075 165.564C211.174 170.47 209.478 174.845 209.478 175.83C209.478 176.094 209.47 176.349 209.461 176.59C209.407 178.174 209.375 179.132 211.978 177.83C214.978 176.33 220.978 172.33 225.978 168.83C230.978 165.33 234.806 164.33 237.806 164.33C240.806 164.33 235.806 170.33 233.306 173.33C228.921 177.83 217.716 186.73 207.978 186.33C200.978 186.33 198.978 185.83 199.978 172.33ZM185.306 171.83C185.806 167.83 189.506 159.43 200.306 157.83C200.306 162.496 188.306 171.83 185.306 171.83Z" fill="white"/>
<path fill-rule="evenodd" clip-rule="evenodd" d="M115.806 172.33C112.639 175.163 105.006 180.83 99.806 180.83C93.306 180.83 90.806 176.83 92.806 170.33C94.806 163.83 100.806 156.33 106.306 153.83C110.706 151.83 118.139 151.663 121.306 151.83C123.806 149.163 129.506 143.83 132.306 143.83C135.806 143.83 135.306 145.83 133.806 151.83C133.044 154.877 130.864 160.503 128.903 165.564C127.002 170.47 125.306 174.845 125.306 175.83C125.306 176.094 125.297 176.349 125.289 176.59C125.235 178.174 125.202 179.132 127.806 177.83C130.806 176.33 136.806 172.33 141.806 168.83C142.213 168.545 142.613 168.264 143.006 167.987C147.45 164.862 151.05 162.33 153.806 162.33C156.806 162.33 156.306 165.83 154.806 168.83C154.577 169.288 154.161 170.026 153.671 170.897C150.952 175.724 145.945 184.615 157.806 172.33C162.18 167.8 165.138 164.636 167.261 162.367C171.933 157.371 172.556 156.705 175.306 155.33C179.306 153.33 178.806 160.33 176.806 165.33C176.25 166.719 172.49 175.366 166.899 188.224C152.369 221.641 125.471 283.501 110.306 320.33C109.57 322.046 108.955 323.402 108.46 324.493C106.936 327.85 106.551 328.698 107.306 329.83C108.306 331.33 107.306 334.83 102.806 339.33C99.0371 343.099 98.0741 343.01 96.6856 342.881C96.4163 342.856 96.1309 342.83 95.806 342.83C93.806 342.83 92.806 342.33 97.306 327.33C100.906 315.33 140.473 225.33 159.806 181.83C152.473 187.996 138.106 196.63 139.306 181.83C133.502 183.455 131.255 184.541 129.813 185.238C128.149 186.043 127.555 186.33 123.806 186.33C116.806 186.33 114.806 185.83 115.806 172.33ZM101.306 171.83C101.806 167.83 105.506 159.43 116.306 157.83C116.306 162.496 104.306 171.83 101.306 171.83Z" fill="white"/>
<path d="M101.306 7.32978C23.306 7.32978 5.30598 11.9964 10.806 13.8298C14.806 15.3298 20.806 14.3298 38.306 13.8298C55.806 13.3298 123.806 12.8298 145.806 12.3298C168.806 11.3298 267.806 13.8298 269.306 13.8298C270.806 13.8298 295.806 14.3298 315.306 15.8298C330.806 16.8298 337.639 18.4964 339.306 18.8298C340.306 18.8298 343.406 17.3298 345.806 17.3298C348.806 17.3298 350.806 17.8298 352.806 17.3298C354.806 16.8298 355.806 15.8298 355.306 13.8298C354.806 11.8298 357.306 9.82978 315.306 8.82978C273.306 7.82978 208.306 6.32978 101.306 7.32978Z" fill="white"/>
<path d="M147.806 16.8298H141.306C94.806 93.8298 15.806 321.83 10.306 338.83C4.806 355.83 10.806 354.83 11.306 354.83C11.806 354.83 20.806 350.33 20.806 341.83C20.806 333.33 27.806 314.83 30.306 307.33C32.806 299.83 42.306 276.33 43.806 271.83C45.306 267.33 46.306 264.83 73.306 192.33C100.306 119.83 145.806 25.8298 147.806 21.3298C149.406 17.7298 148.473 16.8298 147.806 16.8298Z" fill="white"/>
<path d="M225.306 265.33C215.1 274.608 216.306 274.33 223.306 275.83C226.306 276.486 229.306 276.83 231.306 274.83C233.306 272.83 237.306 269.33 240.306 267.33C243.306 265.33 257.306 255.33 256.306 257.83C255.306 260.33 253.806 267.33 251.806 278.83C249.806 290.33 252.306 291.83 262.806 291.83C263.206 285.43 266.306 271.163 267.806 264.83C271.806 246.33 272.806 247.83 278.806 245.33C284.806 242.83 299.306 237.83 307.306 234.83C315.306 231.83 316.306 232.33 309.306 229.33C303.706 226.93 299.306 227.663 297.806 228.33L284.806 232.83C275.806 235.83 275.806 238.33 278.806 230.33C282.255 221.132 281.806 220.83 279.306 219.83C273.806 217.83 268.806 217.33 267.306 221.33C266.106 224.53 264.806 229.663 264.306 231.83C262.306 243.83 259.306 244.33 252.806 247.83C251.806 248.33 230.806 260.33 225.306 265.33Z" fill="white"/>
</g>
<defs>
<clipPath id="clip0">
<rect width="364" height="691" fill="white"/>
</clipPath>
</defs>
</svg>
